<svg width="2189" height="355" viewBox="0 0 2189 355" fill="none" xmlns="http://www.w3.org/2000/svg">
<rect width="78.3951" height="253.2" rx="20" transform="matrix(-0.718876 -0.695139 0.70964 -0.704565 193.022 300.626)" fill="#F6BB2B"/>
<rect width="78.3951" height="164.254" rx="20" transform="matrix(-0.718876 -0.695139 0.70964 -0.704565 327.732 313.253)" fill="#EA4335"/>
<rect width="78.3951" height="339.278" rx="20" transform="matrix(-0.718876 -0.695139 0.70964 -0.704565 56.3564 293.539)" fill="#34A853"/>
<rect width="78.3951" height="253.2" rx="8" transform="matrix(-0.718876 -0.695139 0.70964 -0.704565 193.022 300.626)" fill="url(#paint0_linear_19381_26704)"/>
<rect width="78.3951" height="164.254" rx="8" transform="matrix(-0.718876 -0.695139 0.70964 -0.704565 327.732 313.253)" fill="url(#paint1_linear_19381_26704)"/>
<rect width="78.3951" height="339.278" rx="8" transform="matrix(-0.718876 -0.695139 0.70964 -0.704565 56.3564 293.539)" fill="url(#paint2_linear_19381_26704)"/>
<path d="M606.631 50.9612H544.817C530.293 50.9612 519.821 61.4475 519.821 75.993V267.115C519.821 279.63 529.955 290.117 542.79 290.117C555.288 290.117 565.422 279.63 565.422 267.115V203.858H606.631C659.325 203.858 693.103 171.046 693.103 127.748C693.103 85.1263 659.325 50.9612 606.631 50.9612ZM604.604 164.958H565.422V89.862H604.604C629.938 89.862 648.854 100.01 648.854 127.748C648.854 155.824 629.938 164.958 604.604 164.958Z" fill="#ffffff"/>
<path d="M825.648 110.158C795.248 110.158 774.305 137.896 772.954 150.074V133.16C772.954 120.983 762.821 110.835 750.999 110.835C738.838 110.835 728.705 120.983 728.705 133.16V267.453C728.705 279.292 738.838 289.44 750.999 289.44C762.821 289.44 772.954 279.292 772.954 267.453V185.93C774.643 172.061 791.532 151.427 818.217 151.427C837.133 151.427 846.591 142.97 846.591 130.454C846.591 119.63 839.497 110.158 825.648 110.158Z" fill="#ffffff"/>
<path d="M953.728 109.82C914.883 109.82 863.54 139.926 863.54 200.137C863.54 260.687 914.883 290.117 953.728 290.117C992.235 290.117 1043.92 260.687 1043.92 200.137C1043.92 139.926 992.235 109.82 953.728 109.82ZM953.728 148.382C977.373 148.382 1000 167.325 1000 200.137C1000 232.611 977.373 251.554 953.728 251.554C929.746 251.554 907.452 232.611 907.452 200.137C907.452 167.325 929.746 148.382 953.728 148.382Z" fill="#ffffff"/>
<path d="M1137.99 109.82C1105.9 109.82 1074.82 127.41 1074.82 161.237C1074.82 185.254 1089.01 203.52 1123.12 212.992L1142.38 218.742C1158.59 223.478 1162.31 230.92 1162.31 236.67C1162.31 246.142 1153.19 253.246 1136.63 253.246C1125.15 253.246 1114.34 249.863 1104.55 237.685C1100.49 232.611 1095.42 226.861 1086.3 226.861C1074.14 226.861 1069.42 236.332 1069.42 243.774C1069.42 254.26 1076.85 262.717 1078.54 265.085C1087.99 276.586 1106.23 289.44 1136.63 289.44C1171.76 289.44 1206.22 271.512 1206.22 234.303C1206.22 204.197 1183.59 191.342 1156.56 183.901L1135.96 177.812C1120.42 173.414 1118.39 166.311 1118.39 160.898C1118.39 151.427 1126.16 145 1139.34 145C1149.13 145 1156.9 148.721 1163.66 156.501C1169.4 163.604 1175.82 165.972 1182.23 165.972C1192.03 165.972 1199.46 160.222 1199.46 149.397C1199.46 142.294 1196.08 137.558 1194.06 134.513C1182.91 118.953 1160.95 109.82 1137.99 109.82Z" fill="#ffffff"/>
<path d="M1336.47 109.82C1312.49 109.82 1293.23 122.674 1286.48 138.573V132.822C1286.48 120.983 1276.34 110.835 1264.18 110.835C1252.36 110.835 1241.55 120.983 1241.55 132.822V332.4C1241.55 344.578 1251.69 354.388 1263.85 354.388C1275.67 354.388 1286.14 344.578 1286.14 332.4V271.512C1286.48 270.497 1286.48 269.144 1286.48 267.791V261.364C1289.18 271.85 1307.08 290.117 1336.47 290.117C1373.63 290.117 1418.21 261.364 1418.21 199.799C1418.21 139.587 1373.29 109.82 1336.47 109.82ZM1328.36 251.892C1309.45 251.892 1284.45 238.024 1284.45 199.799C1284.45 161.575 1309.45 147.706 1328.36 147.706C1350.66 147.706 1373.96 165.296 1373.96 199.799C1373.96 234.641 1350.66 251.892 1328.36 251.892Z" fill="#ffffff"/>
<path d="M1534.17 109.82C1495.66 109.82 1445.33 139.249 1445.33 200.137C1445.33 261.702 1492.96 289.44 1537.88 289.44C1559.16 289.44 1576.05 283.69 1588.55 274.895C1596.99 267.791 1599.36 261.702 1599.36 256.29C1599.36 247.833 1593.62 241.068 1584.16 241.068C1578.42 241.068 1573.69 243.774 1567.61 246.48C1557.47 250.878 1551.73 253.584 1539.57 253.584C1514.91 253.584 1495.32 240.391 1491.27 215.698L1591.59 216.374C1609.49 216.374 1619.29 210.286 1619.29 192.696C1619.29 140.264 1572.67 109.82 1534.17 109.82ZM1534.17 148.382C1553.42 148.382 1572.34 159.207 1575.71 185.254H1491.27C1494.31 159.207 1514.91 148.382 1534.17 148.382Z" fill="#ffffff"/>
<path d="M1753.29 110.158C1722.89 110.158 1701.95 137.896 1700.6 150.074V133.16C1700.6 120.983 1690.47 110.835 1678.64 110.835C1666.48 110.835 1656.35 120.983 1656.35 133.16V267.453C1656.35 279.292 1666.48 289.44 1678.64 289.44C1690.47 289.44 1700.6 279.292 1700.6 267.453V185.93C1702.29 172.061 1719.18 151.427 1745.86 151.427C1764.78 151.427 1774.24 142.97 1774.24 130.454C1774.24 119.63 1767.14 110.158 1753.29 110.158Z" fill="#ffffff"/>
<path d="M1910.18 110.158C1873.7 110.158 1853.77 137.896 1852.42 150.074V133.16C1852.42 120.983 1842.28 110.835 1830.46 110.835C1818.3 110.835 1808.17 120.983 1808.17 133.16V267.453C1808.17 279.63 1818.3 289.44 1830.46 289.44C1842.28 289.44 1852.42 279.63 1852.42 267.453V185.93C1853.77 176.459 1863.9 148.044 1894.3 148.044C1914.23 148.044 1930.11 160.56 1930.11 191.004V267.453C1930.11 279.63 1940.24 289.44 1952.06 289.44C1964.22 289.44 1974.36 279.63 1974.36 267.453V191.004C1974.36 132.484 1944.29 110.158 1910.18 110.158Z" fill="#ffffff"/>
<path d="M2165.64 110.835C2153.48 110.835 2143.35 120.983 2143.35 132.822V138.573C2136.59 122.674 2117.34 109.82 2093.36 109.82C2056.54 109.82 2011.62 139.587 2011.62 199.799C2011.62 261.364 2056.2 290.117 2093.36 290.117C2122.75 290.117 2140.65 271.85 2143.35 261.364V267.791C2143.35 279.969 2153.48 289.779 2165.64 289.779C2177.47 289.779 2188.28 279.969 2188.28 267.791V132.822C2188.28 120.983 2177.47 110.835 2165.64 110.835ZM2101.47 251.892C2079.17 251.892 2055.86 234.641 2055.86 199.799C2055.86 165.296 2079.17 147.706 2101.47 147.706C2120.38 147.706 2145.38 161.575 2145.38 199.799C2145.38 238.024 2120.38 251.892 2101.47 251.892Z" fill="#ffffff"/>
<defs>
<linearGradient id="paint0_linear_19381_26704" x1="39.1975" y1="0" x2="39.1975" y2="253.2" gradientUnits="userSpaceOnUse">
<stop stop-color="#BB712C"/>
<stop offset="1" stop-color="#FFB500"/>
</linearGradient>
<linearGradient id="paint1_linear_19381_26704" x1="39.1975" y1="0" x2="39.1975" y2="164.254" gradientUnits="userSpaceOnUse">
<stop stop-color="#AE3A30"/>
<stop offset="1" stop-color="#F42F1F"/>
</linearGradient>
<linearGradient id="paint2_linear_19381_26704" x1="39.1975" y1="-4.85177e-08" x2="32.1578" y2="342.616" gradientUnits="userSpaceOnUse">
<stop offset="0.0427387" stop-color="#34A853"/>
<stop offset="1" stop-color="#34DD62"/>
</linearGradient>
</defs>
</svg>
